<svg xmlns="http://www.w3.org/2000/svg" width="0" height="0" class="hidden">
    <symbol xmlns="http://www.w3.org/2000/svg" viewBox="0 0 11 11" fill="currentColor" id="region">
        <path d="M6.75589 10.6946L10.9596 0.692783C11.1326 0.281273 10.7188 -0.132561 10.3073 0.0403466L0.305501 4.24263C-0.163366 4.43962 -0.0705566 5.12989 0.433694 5.19604L4.80082 5.76898C5.02462 5.79834 5.20073 5.97447 5.23006 6.19828L5.80248 10.5662C5.86857 11.0705 6.55883 11.1634 6.75589 10.6946Z"/>
    </symbol>

    <symbol xmlns="http://www.w3.org/2000/svg" viewBox="0 0 16 16" id="theme-dark">
        <path fill-rule="evenodd" clip-rule="evenodd"
              d="M8 2C8.55229 2 9 1.55228 9 1C9 0.447715 8.55229 0 8 0C7.44772 0 7 0.447715 7 1C7 1.55228 7.44772 2 8 2ZM14 3C14 3.55228 13.5523 4 13 4C12.4477 4 12 3.55228 12 3C12 2.44772 12.4477 2 13 2C13.5523 2 14 2.44772 14 3ZM15 9C14.4477 9 14 8.55228 14 8C14 7.44772 14.4477 7 15 7C15.5523 7 16 7.44772 16 8C16 8.55229 15.5523 9 15 9ZM12 13C12 12.4477 12.4477 12 13 12C13.5523 12 14 12.4477 14 13C14 13.5523 13.5523 14 13 14C12.4477 14 12 13.5523 12 13ZM9 15C9 15.5523 8.55229 16 8 16C7.44772 16 7 15.5523 7 15C7 14.4477 7.44772 14 8 14C8.55229 14 9 14.4477 9 15ZM3 14C2.44772 14 2 13.5523 2 13C2 12.4477 2.44772 12 3 12C3.55228 12 4 12.4477 4 13C4 13.5523 3.55228 14 3 14ZM1 9C0.447715 9 0 8.55228 0 8C0 7.44772 0.447715 7 1 7C1.55228 7 2 7.44772 2 8C2 8.55229 1.55228 9 1 9ZM3 4C2.44772 4 2 3.55228 2 3C2 2.44772 2.44772 2 3 2C3.55228 2 4 2.44772 4 3C4 3.55228 3.55228 4 3 4ZM8 12C5.79086 12 4 10.2091 4 8C4 5.79086 5.79086 4 8 4C10.2091 4 12 5.79086 12 8C12 10.2091 10.2091 12 8 12Z"/>
    </symbol>

    <symbol xmlns="http://www.w3.org/2000/svg" viewBox="0 0 14 14" id="theme-light">
        <path fill-rule="evenodd" clip-rule="evenodd"
              d="M13.7718 8.77902C13.918 8.22146 13.1743 7.90592 12.6887 8.21628C11.9123 8.7124 10.9897 8.99996 10 8.99996C7.23858 8.99996 5 6.76138 5 3.99996C5 3.01008 5.28765 2.08739 5.78393 1.31091C6.09433 0.825248 5.77886 0.0816066 5.22129 0.227657C2.21672 1.01467 0 3.7483 0 6.99967C0 10.8657 3.13401 13.9997 7 13.9997C10.2511 13.9997 12.9846 11.7833 13.7718 8.77902Z"/>
    </symbol>

    <symbol id="logo" width="168" height="32" viewBox="0 0 168 32" xmlns="http://www.w3.org/2000/svg">
        <path fill="currentColor" d="M0 16C0 7.16344 7.16344 0 16 0H32V16C32 24.8366 24.8366 32 16 32L8 32V16C8 11.5817 11.5817 8 16 8H24V16C24 20.4183 20.4183 24 16 24V20C18.2091 20 20 18.2091 20 16V12H16C13.7909 12 12 13.7909 12 16V28H16C22.6274 28 28 22.6274 28 16V4H16C9.37258 4 4 9.37258 4 16L4 24H0V16Z"/>
        <path fill-rule="evenodd" clip-rule="evenodd" d="M71.4894 8.60986C73.5494 8.60986 75.3094 9.37986 76.7694 10.9199C78.2294 12.4399 78.9594 14.2999 78.9594 16.4999C78.9594 18.7199 78.2294 20.5899 76.7694 22.1099C75.3094 23.6299 73.5494 24.3899 71.4894 24.3899C69.2094 24.3899 67.4594 23.5499 66.2394 21.8699V29.9999H62.9994V8.99986H66.2394V11.1599C67.4594 9.45986 69.2094 8.60986 71.4894 8.60986ZM67.5894 19.9499C68.4894 20.8499 69.6194 21.2999 70.9794 21.2999C72.3394 21.2999 73.4694 20.8499 74.3694 19.9499C75.2694 19.0299 75.7194 17.8799 75.7194 16.4999C75.7194 15.1199 75.2694 13.9799 74.3694 13.0799C73.4694 12.1599 72.3394 11.6999 70.9794 11.6999C69.6194 11.6999 68.4894 12.1599 67.5894 13.0799C66.6894 13.9799 66.2394 15.1199 66.2394 16.4999C66.2394 17.8799 66.6894 19.0299 67.5894 19.9499ZM86.0959 20.5199C85.2359 19.8999 84.6859 19.0199 84.4459 17.8799H96.3859C96.4659 17.3199 96.5059 16.8699 96.5059 16.5299C96.5059 14.3299 95.7959 12.4599 94.3759 10.9199C92.9759 9.37986 91.1759 8.60986 88.9759 8.60986C86.6559 8.60986 84.7559 9.36986 83.2759 10.8899C81.7959 12.3899 81.0559 14.2599 81.0559 16.4999C81.0559 18.7799 81.8059 20.6699 83.3059 22.1699C84.8059 23.6499 86.7759 24.3899 89.2159 24.3899C92.1159 24.3899 94.3059 23.2999 95.7859 21.1199L93.1159 19.5599C92.2559 20.7999 90.9659 21.4199 89.2459 21.4199C88.0059 21.4199 86.9559 21.1199 86.0959 20.5199ZM93.2359 15.2399H84.4159C84.6359 14.0999 85.1459 13.1999 85.9459 12.5399C86.7459 11.8799 87.7459 11.5499 88.9459 11.5499C90.0059 11.5499 90.9259 11.8599 91.7059 12.4799C92.5059 13.0999 93.0159 14.0199 93.2359 15.2399ZM135.422 17.8799C135.662 19.0199 136.212 19.8999 137.072 20.5199C137.932 21.1199 138.982 21.4199 140.222 21.4199C141.942 21.4199 143.232 20.7999 144.092 19.5599L146.762 21.1199C145.282 23.2999 143.092 24.3899 140.192 24.3899C137.752 24.3899 135.782 23.6499 134.282 22.1699C132.782 20.6699 132.032 18.7799 132.032 16.4999C132.032 14.2599 132.772 12.3899 134.252 10.8899C135.732 9.36986 137.632 8.60986 139.952 8.60986C142.152 8.60986 143.952 9.37986 145.352 10.9199C146.772 12.4599 147.482 14.3299 147.482 16.5299C147.482 16.8699 147.442 17.3199 147.362 17.8799H135.422ZM135.392 15.2399H144.212C143.992 14.0199 143.482 13.0999 142.682 12.4799C141.902 11.8599 140.982 11.5499 139.922 11.5499C138.722 11.5499 137.722 11.8799 136.922 12.5399C136.122 13.1999 135.612 14.0999 135.392 15.2399ZM158.543 8.60986C160.603 8.60986 162.363 9.37986 163.823 10.9199C165.283 12.4399 166.013 14.2999 166.013 16.4999C166.013 18.7199 165.283 20.5899 163.823 22.1099C162.363 23.6299 160.603 24.3899 158.543 24.3899C156.263 24.3899 154.513 23.5499 153.293 21.8699V29.9999H150.053V8.99986H153.293V11.1599C154.513 9.45986 156.263 8.60986 158.543 8.60986ZM154.643 19.9499C155.543 20.8499 156.673 21.2999 158.033 21.2999C159.393 21.2999 160.523 20.8499 161.423 19.9499C162.323 19.0299 162.773 17.8799 162.773 16.4999C162.773 15.1199 162.323 13.9799 161.423 13.0799C160.523 12.1599 159.393 11.6999 158.033 11.6999C156.673 11.6999 155.543 12.1599 154.643 13.0799C153.743 13.9799 153.293 15.1199 153.293 16.4999C153.293 17.8799 153.743 19.0299 154.643 19.9499ZM128.522 15.48C127.502 14.56 126.192 14.1 124.592 14.1H121.292V9H118.052V24H124.592C126.192 24 127.502 23.54 128.522 22.62C129.542 21.7 130.052 20.51 130.052 19.05C130.052 17.57 129.542 16.38 128.522 15.48ZM126.212 20.52C125.792 20.9 125.262 21.09 124.622 21.09H121.292V17.01H124.622C125.262 17.01 125.792 17.2 126.212 17.58C126.652 17.94 126.872 18.43 126.872 19.05C126.872 19.65 126.652 20.14 126.212 20.52ZM114.307 9V24H111.157V14.13L106.837 21H106.447L102.157 14.16V24H99.0071V9H102.307L106.657 15.93L111.007 9H114.307ZM59.3494 24V9H45.9994V24H49.2394V12.06H56.1094V24H59.3494Z"/>
    </symbol>

    <symbol xmlns="http://www.w3.org/2000/svg" id="down"  fill="currentColor">
        <path d="M0.0332029 5.1656e-07L2.53314 3L5.0332 4.76837e-07L0.0332029 5.1656e-07Z"/>
    </symbol>

    <symbol id="sale" fill="currentColor" viewBox="0 0 13 12" xmlns="http://www.w3.org/2000/svg">
        <path d="M0.858229 6.10832L7.90759 0.299349C8.2874 -0.0136323 8.84332 0.352678 8.70557 0.825162L7.67671 4.35424C7.58342 4.67423 7.82341 4.99419 8.15672 4.99419H11.8231C12.2922 4.99419 12.503 5.58194 12.1409 5.88015L5.07114 11.7026C4.6914 12.0153 4.13576 11.6493 4.27318 11.1769L5.30403 7.63387C5.39711 7.31394 5.15713 6.99419 4.82393 6.99419H1.1762C0.707182 6.99419 0.49627 6.40659 0.858229 6.10832Z" />
    </symbol>

    <symbol id="search" xmlns="http://www.w3.org/2000/svg" viewBox="0 0 18 18">
        <path fill-rule="evenodd" clip-rule="evenodd" d="M2 8C2 4.68629 4.68629 2 8 2C11.3137 2 14 4.68629 14 8C14 11.3137 11.3137 14 8 14C4.68629 14 2 11.3137 2 8ZM8 0C3.58172 0 0 3.58172 0 8C0 12.4183 3.58172 16 8 16C9.84871 16 11.551 15.3729 12.9056 14.3199L16.2929 17.7071C16.6834 18.0976 17.3166 18.0976 17.7071 17.7071C18.0976 17.3166 18.0976 16.6834 17.7071 16.2929L14.3199 12.9056C15.3729 11.551 16 9.84871 16 8C16 3.58172 12.4183 0 8 0Z"/>
    </symbol>

    <symbol id="log-out" xmlns="http://www.w3.org/2000/svg" viewBox="0 0 18 18">
        <path fill-rule="evenodd" clip-rule="evenodd" d="M3.99975 5C3.99975 2.23858 6.23832 0 8.99975 0C11.7612 0 13.9997 2.23858 13.9997 5C13.9997 7.76142 11.7612 10 8.99975 10C6.23832 10 3.99975 7.76142 3.99975 5ZM8.99975 2C7.34289 2 5.99975 3.34315 5.99975 5C5.99975 6.65685 7.34289 8 8.99975 8C10.6566 8 11.9997 6.65685 11.9997 5C11.9997 3.34315 10.6566 2 8.99975 2Z"/>
        <path d="M17.9639 16.7337C17.2566 13.9504 14.7505 12 11.8766 12H6.12285C3.24081 12 0.728605 13.9615 0.0296059 16.7575C-0.104343 17.2933 0.221418 17.8362 0.757212 17.9701C1.29301 18.1041 1.83594 17.7783 1.96989 17.2425C2.44631 15.3369 4.15854 14 6.12285 14H11.8766C13.8347 14 15.5423 15.3284 16.025 17.2243C16.1268 17.6686 16.5246 18 16.9997 18C17.552 18 17.9997 17.5523 17.9997 17C17.9997 16.9078 17.9873 16.8185 17.9639 16.7337Z"/>
    </symbol>

    <symbol id="compare" xmlns="http://www.w3.org/2000/svg" viewBox="0 0 20 20">
        <path fill-rule="evenodd" clip-rule="evenodd" d="M0 6C0 2.68629 2.68629 0 6 0H14C17.3137 0 20 2.68629 20 6V14C20 17.3137 17.3137 20 14 20H6C2.68629 20 0 17.3137 0 14V6ZM6 2H14C16.2091 2 18 3.79086 18 6V14C18 16.2091 16.2091 18 14 18H6C3.79086 18 2 16.2091 2 14V6C2 3.79086 3.79086 2 6 2Z"/>
        <path d="M10 5C9.44771 5 9 5.44772 9 6V14C9 14.5523 9.44771 15 10 15C10.5523 15 11 14.5523 11 14V6C11 5.44772 10.5523 5 10 5Z"/>
        <path d="M13 8C13 7.44772 13.4477 7 14 7C14.5523 7 15 7.44772 15 8V14C15 14.5523 14.5523 15 14 15C13.4477 15 13 14.5523 13 14V8Z"/>
        <path d="M6 10C5.44772 10 5 10.4477 5 11V14C5 14.5523 5.44772 15 6 15C6.55228 15 7 14.5523 7 14V11C7 10.4477 6.55228 10 6 10Z"/>
    </symbol>

    <symbol id="favorite" xmlns="http://www.w3.org/2000/svg" viewBox="0 0 20 20">
        <path fill-rule="evenodd" clip-rule="evenodd" d="M6 3C3.79086 3 2 4.79086 2 7C2 8.21767 2.54286 9.30748 3.40329 10.0427L3.42165 10.0584L9.99989 16.2528L16.5824 10.0549L16.6003 10.0396C17.4586 9.30445 18 8.21598 18 7C18 4.79086 16.2091 3 14 3C12.6922 3 11.531 3.6266 10.7995 4.60019L10 5.66431L9.20051 4.60019C8.46903 3.6266 7.30784 3 6 3ZM0 7C0 3.68629 2.68629 1 6 1C7.53707 1 8.93917 1.57863 10 2.52791C11.0608 1.57863 12.4629 1 14 1C17.3137 1 20 3.68629 20 7C20 8.81571 19.1923 10.4438 17.9199 11.5426L9.99983 18.9998L2.0849 11.5468C0.809798 10.448 0 8.81802 0 7Z"/>
    </symbol>

    <symbol id="cart" xmlns="http://www.w3.org/2000/svg" viewBox="0 0 20 18">
        <path d="M0.723 0.048 C 0.009 0.240,-0.229 1.171,0.300 1.700 C 0.581 1.981,0.588 1.982,1.958 1.994 L 3.166 2.004 3.183 2.077 C 3.192 2.117,3.546 4.055,3.968 6.383 C 4.391 8.712,4.759 10.707,4.788 10.817 C 5.041 11.800,5.894 12.631,6.933 12.908 L 7.217 12.983 11.717 12.983 C 16.799 12.983,16.366 13.006,16.967 12.711 C 17.234 12.580,17.331 12.508,17.586 12.253 C 18.099 11.740,18.078 11.799,18.873 8.633 L 19.547 5.950 19.549 5.500 C 19.550 5.119,19.538 5.012,19.472 4.800 C 19.204 3.942,18.569 3.325,17.700 3.079 C 17.494 3.020,17.194 3.017,11.429 3.008 L 5.374 2.999 5.317 2.674 C 5.052 1.180,4.994 1.019,4.568 0.596 C 4.273 0.304,3.956 0.128,3.583 0.050 C 3.268 -0.016,0.967 -0.018,0.723 0.048 M17.299 5.058 C 17.465 5.142,17.567 5.309,17.566 5.497 C 17.564 5.716,16.323 10.653,16.241 10.763 C 16.206 10.811,16.127 10.884,16.066 10.925 L 15.955 11.001 11.669 10.992 L 7.383 10.983 7.243 10.908 C 7.165 10.867,7.050 10.787,6.986 10.731 C 6.746 10.520,6.736 10.480,6.234 7.716 C 5.978 6.305,5.760 5.116,5.750 5.075 L 5.732 5.000 11.458 5.000 C 16.842 5.000,17.190 5.004,17.299 5.058 M5.150 15.046 C 4.751 15.144,4.335 15.469,4.167 15.816 C 3.948 16.269,3.949 16.730,4.170 17.191 C 4.268 17.395,4.605 17.732,4.809 17.830 C 5.430 18.128,6.079 18.025,6.552 17.552 C 7.131 16.973,7.150 16.092,6.597 15.487 C 6.242 15.098,5.662 14.922,5.150 15.046 M16.142 15.051 C 15.550 15.211,15.128 15.676,15.024 16.283 C 14.861 17.235,15.765 18.139,16.717 17.976 C 17.373 17.864,17.864 17.373,17.976 16.717 C 18.150 15.703,17.138 14.783,16.142 15.051 " stroke="none" fill-rule="evenodd"/>
    </symbol>

    <symbol xmlns="http://www.w3.org/2000/svg" viewBox="0 0 14 14" id="catalog">
        <path d="M1 0C0.447715 0 0 0.447715 0 1C0 1.55228 0.447715 2 1 2C1.55228 2 2 1.55228 2 1C2 0.447715 1.55228 0 1 0Z"/>
        <path d="M1 6C0.447715 6 0 6.44772 0 7C0 7.55228 0.447715 8 1 8C1.55228 8 2 7.55228 2 7C2 6.44772 1.55228 6 1 6Z"/>
        <path d="M1 12C0.447715 12 0 12.4477 0 13C0 13.5523 0.447715 14 1 14C1.55228 14 2 13.5523 2 13C2 12.4477 1.55228 12 1 12Z"/>
        <path d="M6 1C6 0.447715 6.44772 0 7 0C7.55228 0 8 0.447715 8 1C8 1.55228 7.55228 2 7 2C6.44772 2 6 1.55228 6 1Z"/>
        <path d="M6 7C6 6.44772 6.44772 6 7 6C7.55228 6 8 6.44772 8 7C8 7.55228 7.55228 8 7 8C6.44772 8 6 7.55228 6 7Z"/>
        <path d="M6 13C6 12.4477 6.44772 12 7 12C7.55228 12 8 12.4477 8 13C8 13.5523 7.55228 14 7 14C6.44772 14 6 13.5523 6 13Z"/>
        <path d="M12 1C12 0.447715 12.4477 0 13 0C13.5523 0 14 0.447715 14 1C14 1.55228 13.5523 2 13 2C12.4477 2 12 1.55228 12 1Z"/>
        <path d="M12 7C12 6.44772 12.4477 6 13 6C13.5523 6 14 6.44772 14 7C14 7.55228 13.5523 8 13 8C12.4477 8 12 7.55228 12 7Z"/>
        <path d="M12 13C12 12.4477 12.4477 12 13 12C13.5523 12 14 12.4477 14 13C14 13.5523 13.5523 14 13 14C12.4477 14 12 13.5523 12 13Z"/>
    </symbol>

    <symbol xmlns="http://www.w3.org/2000/svg" viewBox="0 0 16 16" id="close">
        <path fill-rule="evenodd" clip-rule="evenodd" d="M0.292893 0.292893C0.683417 -0.0976311 1.31658 -0.0976311 1.70711 0.292893L8 6.58579L14.2929 0.292893C14.6834 -0.0976311 15.3166 -0.0976311 15.7071 0.292893C16.0976 0.683417 16.0976 1.31658 15.7071 1.70711L9.41421 8L15.7071 14.2929C16.0976 14.6834 16.0976 15.3166 15.7071 15.7071C15.3166 16.0976 14.6834 16.0976 14.2929 15.7071L8 9.41421L1.70711 15.7071C1.31658 16.0976 0.683417 16.0976 0.292893 15.7071C-0.0976311 15.3166 -0.0976311 14.6834 0.292893 14.2929L6.58579 8L0.292893 1.70711C-0.0976311 1.31658 -0.0976311 0.683417 0.292893 0.292893Z"/>
    </symbol>

    <symbol xmlns="http://www.w3.org/2000/svg" viewBox="0 0 16 12" id="burger">
        <path d="M0 1C0 0.447716 0.447716 0 1 0H15C15.5523 0 16 0.447716 16 1C16 1.55228 15.5523 2 15 2H1C0.447716 2 0 1.55228 0 1Z"/>
        <path d="M0 6C0 5.44772 0.447716 5 1 5H15C15.5523 5 16 5.44772 16 6C16 6.55228 15.5523 7 15 7H1C0.447716 7 0 6.55228 0 6Z"/>
        <path d="M0 11C0 10.4477 0.447716 10 1 10H15C15.5523 10 16 10.4477 16 11C16 11.5523 15.5523 12 15 12H1C0.447716 12 0 11.5523 0 11Z"/>
    </symbol>
</svg>