<svg xmlns="http://www.w3.org/2000/svg" width="0" height="0" class="hidden">
    <symbol xmlns="http://www.w3.org/2000/svg" viewBox="0 0 18 18" id="actions-log-out">
        <path fill-rule="evenodd" clip-rule="evenodd"
              d="M3.99975 5C3.99975 2.23858 6.23832 0 8.99975 0C11.7612 0 13.9997 2.23858 13.9997 5C13.9997 7.76142 11.7612 10 8.99975 10C6.23832 10 3.99975 7.76142 3.99975 5ZM8.99975 2C7.34289 2 5.99975 3.34315 5.99975 5C5.99975 6.65685 7.34289 8 8.99975 8C10.6566 8 11.9997 6.65685 11.9997 5C11.9997 3.34315 10.6566 2 8.99975 2Z"/>
        <path
                d="M17.9639 16.7337C17.2566 13.9504 14.7505 12 11.8766 12H6.12285C3.24081 12 0.728605 13.9615 0.0296059 16.7575C-0.104343 17.2933 0.221418 17.8362 0.757212 17.9701C1.29301 18.1041 1.83594 17.7783 1.96989 17.2425C2.44631 15.3369 4.15854 14 6.12285 14H11.8766C13.8347 14 15.5423 15.3284 16.025 17.2243C16.1268 17.6686 16.5246 18 16.9997 18C17.552 18 17.9997 17.5523 17.9997 17C17.9997 16.9078 17.9873 16.8185 17.9639 16.7337Z"/>
    </symbol>

    <symbol xmlns="http://www.w3.org/2000/svg" viewBox="0 0 20 20" id="actions-compare">
        <path fill-rule="evenodd" clip-rule="evenodd" d="M0 6C0 2.68629 2.68629 0 6 0H14C17.3137 0 20 2.68629 20 6V14C20 17.3137 17.3137 20 14 20H6C2.68629 20 0 17.3137 0 14V6ZM6 2H14C16.2091 2 18 3.79086 18 6V14C18 16.2091 16.2091 18 14 18H6C3.79086 18 2 16.2091 2 14V6C2 3.79086 3.79086 2 6 2Z"/>
        <path d="M10 5C9.44771 5 9 5.44772 9 6V14C9 14.5523 9.44771 15 10 15C10.5523 15 11 14.5523 11 14V6C11 5.44772 10.5523 5 10 5Z"/>
        <path d="M13 8C13 7.44772 13.4477 7 14 7C14.5523 7 15 7.44772 15 8V14C15 14.5523 14.5523 15 14 15C13.4477 15 13 14.5523 13 14V8Z"/>
        <path d="M6 10C5.44772 10 5 10.4477 5 11V14C5 14.5523 5.44772 15 6 15C6.55228 15 7 14.5523 7 14V11C7 10.4477 6.55228 10 6 10Z"/>
    </symbol>

    <symbol xmlns="http://www.w3.org/2000/svg" viewBox="0 0 20 20" id="action-favorite">
        <path fill-rule="evenodd" clip-rule="evenodd" d="M6 3C3.79086 3 2 4.79086 2 7C2 8.21767 2.54286 9.30748 3.40329 10.0427L3.42165 10.0584L9.99989 16.2528L16.5824 10.0549L16.6003 10.0396C17.4586 9.30445 18 8.21598 18 7C18 4.79086 16.2091 3 14 3C12.6922 3 11.531 3.6266 10.7995 4.60019L10 5.66431L9.20051 4.60019C8.46903 3.6266 7.30784 3 6 3ZM0 7C0 3.68629 2.68629 1 6 1C7.53707 1 8.93917 1.57863 10 2.52791C11.0608 1.57863 12.4629 1 14 1C17.3137 1 20 3.68629 20 7C20 8.81571 19.1923 10.4438 17.9199 11.5426L9.99983 18.9998L2.0849 11.5468C0.809798 10.448 0 8.81802 0 7Z"/>
    </symbol>

    <symbol id="cart" xmlns="http://www.w3.org/2000/svg" viewBox="0 0 20 18">
        <path d="M0.723 0.048 C 0.009 0.240,-0.229 1.171,0.300 1.700 C 0.581 1.981,0.588 1.982,1.958 1.994 L 3.166 2.004 3.183 2.077 C 3.192 2.117,3.546 4.055,3.968 6.383 C 4.391 8.712,4.759 10.707,4.788 10.817 C 5.041 11.800,5.894 12.631,6.933 12.908 L 7.217 12.983 11.717 12.983 C 16.799 12.983,16.366 13.006,16.967 12.711 C 17.234 12.580,17.331 12.508,17.586 12.253 C 18.099 11.740,18.078 11.799,18.873 8.633 L 19.547 5.950 19.549 5.500 C 19.550 5.119,19.538 5.012,19.472 4.800 C 19.204 3.942,18.569 3.325,17.700 3.079 C 17.494 3.020,17.194 3.017,11.429 3.008 L 5.374 2.999 5.317 2.674 C 5.052 1.180,4.994 1.019,4.568 0.596 C 4.273 0.304,3.956 0.128,3.583 0.050 C 3.268 -0.016,0.967 -0.018,0.723 0.048 M17.299 5.058 C 17.465 5.142,17.567 5.309,17.566 5.497 C 17.564 5.716,16.323 10.653,16.241 10.763 C 16.206 10.811,16.127 10.884,16.066 10.925 L 15.955 11.001 11.669 10.992 L 7.383 10.983 7.243 10.908 C 7.165 10.867,7.050 10.787,6.986 10.731 C 6.746 10.520,6.736 10.480,6.234 7.716 C 5.978 6.305,5.760 5.116,5.750 5.075 L 5.732 5.000 11.458 5.000 C 16.842 5.000,17.190 5.004,17.299 5.058 M5.150 15.046 C 4.751 15.144,4.335 15.469,4.167 15.816 C 3.948 16.269,3.949 16.730,4.170 17.191 C 4.268 17.395,4.605 17.732,4.809 17.830 C 5.430 18.128,6.079 18.025,6.552 17.552 C 7.131 16.973,7.150 16.092,6.597 15.487 C 6.242 15.098,5.662 14.922,5.150 15.046 M16.142 15.051 C 15.550 15.211,15.128 15.676,15.024 16.283 C 14.861 17.235,15.765 18.139,16.717 17.976 C 17.373 17.864,17.864 17.373,17.976 16.717 C 18.150 15.703,17.138 14.783,16.142 15.051 " stroke="none" fill-rule="evenodd"/>
    </symbol>
</svg>